P2
10 10
255
255 255 255 255 255 255 255 255 255 255
255 255 255 255 255 255 255 255 255 255
0 0 0 0 0 0 0 0 0 0
255 255 255 255 255 255 255 255 255 255
255 255 255 255 255 255 255 255 255 255
255 255 255 255 255 255 255 255 255 255
128 128 128 128 128 128 128 128 128 128
255 255 255 255 255 255 255 255 255 255
255 255 255 255 255 255 255 255 255 255
255 255 255 255 32 32 255 255 255 255