P2
3 3
255
200 150 100
180 130 80
160 110 60

