P2
4 4
255
200 150 100 50
180 130 80 30
160 110 60 10
140 90 40 5
