P2
3 3
248
248 234 0
221 248 77
234 51 51
